<?xml version="1.0" encoding="utf-8"?>
<!-- Generator: Adobe Illustrator 23.0.1, SVG Export Plug-In . SVG Version: 6.00 Build 0)  -->
<svg version="1.1" id="Layer_1" xmlns="http://www.w3.org/2000/svg" xmlns:xlink="http://www.w3.org/1999/xlink" x="0px" y="0px"
	 viewBox="0 0 64 64" style="enable-background:new 0 0 64 64;" xml:space="preserve">
<style type="text/css">
	.st0{fill:#EFAD0D;}
</style>
<g>
	<ellipse class="st0" cx="32" cy="32" rx="13" ry="13"/>
	<g>
		<path class="st0" d="M32,14.2L32,14.2c-0.9,0-1.5-0.7-1.5-1.5V1.5C30.4,0.7,31.1,0,32,0l0,0c0.9,0,1.5,0.7,1.5,1.5v11
			C33.5,13.4,32.8,14.2,32,14.2z"/>
		<path class="st0" d="M32,64L32,64c-0.9,0-1.5-0.7-1.5-1.5v-11c0-0.9,0.7-1.5,1.5-1.5l0,0c0.9,0,1.5,0.7,1.5,1.5v11
			C33.5,63.3,32.8,64,32,64z"/>
	</g>
	<g>
		<path class="st0" d="M44.6,19.4L44.6,19.4c-0.6-0.6-0.6-1.6,0-2.2l7.8-7.8c0.6-0.6,1.6-0.6,2.2,0l0,0c0.6,0.6,0.6,1.6,0,2.2
			l-7.8,7.8C46.2,20,45.2,20,44.6,19.4z"/>
		<path class="st0" d="M9.3,54.6L9.3,54.6c-0.6-0.6-0.6-1.6,0-2.2l7.8-7.8c0.6-0.6,1.6-0.6,2.2,0l0,0c0.6,0.6,0.6,1.6,0,2.2
			l-7.8,7.8C10.9,55.2,9.9,55.2,9.3,54.6z"/>
	</g>
	<g>
		<path class="st0" d="M49.8,32L49.8,32c0-0.9,0.7-1.5,1.5-1.5h11c0.9,0,1.5,0.7,1.5,1.5l0,0c0,0.9-0.7,1.5-1.5,1.5h-11
			C50.5,33.5,49.8,32.9,49.8,32z"/>
		<path class="st0" d="M0,32L0,32c0-0.9,0.7-1.5,1.5-1.5h11c0.9,0,1.5,0.7,1.5,1.5l0,0c0,0.9-0.7,1.5-1.5,1.5h-11
			C0.6,33.5,0,32.9,0,32z"/>
	</g>
	<g>
		<path class="st0" d="M44.6,44.6L44.6,44.6c0.6-0.6,1.6-0.6,2.2,0l7.8,7.8c0.6,0.6,0.6,1.6,0,2.2l0,0c-0.6,0.6-1.6,0.6-2.2,0
			l-7.8-7.8C44,46.2,44,45.3,44.6,44.6z"/>
		<path class="st0" d="M9.3,9.4L9.3,9.4c0.6-0.6,1.6-0.6,2.2,0l7.8,7.8c0.6,0.6,0.6,1.6,0,2.2l0,0c-0.6,0.6-1.6,0.6-2.2,0l-7.8-7.8
			C8.7,11,8.7,10,9.3,9.4z"/>
	</g>
</g>
</svg>
