<?xml version="1.0" encoding="utf-8"?>
<!-- Generator: Adobe Illustrator 23.0.1, SVG Export Plug-In . SVG Version: 6.00 Build 0)  -->
<svg version="1.1" id="Layer_1" xmlns="http://www.w3.org/2000/svg" xmlns:xlink="http://www.w3.org/1999/xlink" x="0px" y="0px"
	 viewBox="0 0 64 64" style="enable-background:new 0 0 64 64;" xml:space="preserve">
<style type="text/css">
	.st0{fill:#EFAD0D;}
	.st1{fill:#FFDC7B;}
	.st2{fill:#FFFFFF;}
</style>
<g>
	<g>
		<ellipse class="st0" cx="20.3" cy="28.8" rx="8.2" ry="8.2"/>
		<g>
			<path class="st0" d="M20.3,17.5L20.3,17.5c-0.5,0-1-0.4-1-1v-7c0-0.5,0.4-1,1-1l0,0c0.5,0,1,0.4,1,1v7
				C21.3,17.1,20.9,17.5,20.3,17.5z"/>
			<path class="st1" d="M20.3,49.1L20.3,49.1c-0.5,0-1-0.4-1-1v-7c0-0.5,0.4-1,1-1l0,0c0.5,0,1,0.4,1,1v7
				C21.3,48.7,20.9,49.1,20.3,49.1z"/>
		</g>
		<g>
			<path class="st0" d="M28.3,20.8L28.3,20.8c-0.4-0.4-0.4-1,0-1.4l4.9-4.9c0.4-0.4,1-0.4,1.4,0l0,0c0.4,0.4,0.4,1,0,1.4l-4.9,4.9
				C29.3,21.2,28.7,21.2,28.3,20.8z"/>
			<path class="st0" d="M6,43.2L6,43.2c-0.4-0.4-0.4-1,0-1.4l4.9-4.9c0.4-0.4,1-0.4,1.4,0l0,0c0.4,0.4,0.4,1,0,1.4l-4.9,4.9
				C7,43.5,6.4,43.5,6,43.2z"/>
		</g>
		<g>
			<path class="st1" d="M31.6,28.8L31.6,28.8c0-0.5,0.4-1,1-1h7c0.5,0,1,0.4,1,1l0,0c0,0.5-0.4,1-1,1h-7
				C32.1,29.8,31.6,29.3,31.6,28.8z"/>
			<path class="st0" d="M0.1,28.8L0.1,28.8c0-0.5,0.4-1,1-1h7c0.5,0,1,0.4,1,1l0,0c0,0.5-0.4,1-1,1H1C0.5,29.8,0.1,29.3,0.1,28.8z"
				/>
		</g>
		<g>
			<path class="st1" d="M28.3,36.8L28.3,36.8c0.4-0.4,1-0.4,1.4,0l4.9,4.9c0.4,0.4,0.4,1,0,1.4l0,0c-0.4,0.4-1,0.4-1.4,0l-4.9-4.9
				C27.9,37.8,27.9,37.2,28.3,36.8z"/>
			<path class="st0" d="M6,14.5L6,14.5c0.4-0.4,1-0.4,1.4,0l4.9,4.9c0.4,0.4,0.4,1,0,1.4l0,0c-0.4,0.4-1,0.4-1.4,0L6,15.9
				C5.6,15.5,5.6,14.9,6,14.5z"/>
		</g>
	</g>
	<path class="st2" d="M57.9,43.2C57.9,43.2,57.8,43.2,57.9,43.2c0.4-1.1,0.7-2.4,0.7-3.7c0-5.1-4.1-9.2-9.2-9.2
		c-1.8,0-3.5,0.5-4.9,1.4c-1.9-4.7-6.5-8-11.9-8c-7.1,0-12.9,5.8-12.9,12.9c0,0.5,0,1.1,0.1,1.6c0,0-0.1,0-0.1,0
		c-4.8,0-8.6,3.9-8.6,8.6s3.9,8.6,8.6,8.6h38.2c3.4,0,6.1-2.7,6.1-6.1C64,45.9,61.3,43.2,57.9,43.2z"/>
</g>
</svg>
