<?xml version="1.0" encoding="utf-8"?>
<!-- Generator: Adobe Illustrator 23.0.1, SVG Export Plug-In . SVG Version: 6.00 Build 0)  -->
<svg version="1.1" id="Layer_1" xmlns="http://www.w3.org/2000/svg" xmlns:xlink="http://www.w3.org/1999/xlink" x="0px" y="0px"
	 viewBox="0 0 64 64" style="enable-background:new 0 0 64 64;" xml:space="preserve">
<style type="text/css">
	.st0{fill:#FFDC7B;}
	.st1{fill:#FFFFFF;}
</style>
<g>
	<path class="st0" d="M49.9,28.4c1.8,0,3.5-0.5,4.9-1.2c-2.4,2.6-5.9,4.2-9.8,4.2c-7.4,0-13.3-6-13.3-13.3c0-7.4,6-13.3,13.3-13.3
		c3.9,0,7.3,1.6,9.8,4.2c-1.5-0.8-3.2-1.2-4.9-1.2c-5.7,0-10.3,4.6-10.3,10.3C39.6,23.8,44.2,28.4,49.9,28.4z"/>
	<path class="st1" d="M56.6,44.4C56.6,44.4,56.5,44.4,56.6,44.4c0.5-1.4,0.9-2.8,0.9-4.4c0-6.2-5-11.2-11.2-11.2
		c-2.2,0-4.2,0.6-5.9,1.7c-2.3-5.6-7.9-9.6-14.4-9.6c-8.6,0-15.5,7-15.5,15.5c0,0.7,0,1.3,0.1,1.9c0,0-0.1,0-0.1,0
		C4.7,38.4,0,43,0,48.8s4.7,10.4,10.4,10.4h46.2c4.1,0,7.4-3.3,7.4-7.4C64,47.7,60.7,44.4,56.6,44.4z"/>
</g>
</svg>
