<?xml version="1.0" encoding="utf-8"?>
<!-- Generator: Adobe Illustrator 23.0.1, SVG Export Plug-In . SVG Version: 6.00 Build 0)  -->
<svg version="1.1" id="Layer_1" xmlns="http://www.w3.org/2000/svg" xmlns:xlink="http://www.w3.org/1999/xlink" x="0px" y="0px"
	 viewBox="0 0 64 64" style="enable-background:new 0 0 64 64;" xml:space="preserve">
<style type="text/css">
	.st0{fill:#FFFFFF;}
</style>
<path class="st0" d="M56.6,36.4C56.6,36.4,56.5,36.4,56.6,36.4c0.5-1.4,0.8-2.9,0.8-4.4c0-6.2-5-11.2-11.2-11.2
	c-2.2,0-4.2,0.6-5.9,1.7c-2.3-5.7-7.9-9.7-14.4-9.7c-8.6,0-15.5,7-15.5,15.5c0,0.6,0,1.3,0.1,1.9c0,0-0.1,0-0.1,0
	C4.7,30.3,0,35,0,40.7s4.7,10.4,10.4,10.4h46.2c4.1,0,7.4-3.3,7.4-7.4C64,39.7,60.7,36.4,56.6,36.4z"/>
</svg>
