<?xml version="1.0" encoding="utf-8"?>
<!-- Generator: Adobe Illustrator 23.0.1, SVG Export Plug-In . SVG Version: 6.00 Build 0)  -->
<svg version="1.1" id="Layer_1" xmlns="http://www.w3.org/2000/svg" xmlns:xlink="http://www.w3.org/1999/xlink" x="0px" y="0px"
	 viewBox="0 0 64 64" style="enable-background:new 0 0 64 64;" xml:space="preserve">
<style type="text/css">
	.st0{fill:#DDE5ED;}
	.st1{fill:#FFFFFF;}
</style>
<g>
	<path class="st0" d="M59,30.6C59,30.6,59,30.6,59,30.6c0.3-0.9,0.6-2,0.6-3c0-4.2-3.4-7.6-7.6-7.6c-1.5,0-2.8,0.4-4,1.2
		c-1.6-3.8-5.4-6.5-9.8-6.5c-5.9,0-10.6,4.7-10.6,10.6c0,0.4,0,0.9,0.1,1.3c0,0-0.1,0-0.1,0c-3.9,0-7.1,3.2-7.1,7.1s3.2,7.1,7.1,7.1
		H59c2.8,0,5-2.2,5-5C64,32.9,61.8,30.6,59,30.6z"/>
	<path class="st1" d="M46.4,37.2C46.4,37.2,46.4,37.2,46.4,37.2c0.4-1.1,0.7-2.3,0.7-3.6c0-5.1-4.1-9.2-9.2-9.2
		c-1.8,0-3.4,0.5-4.9,1.4c-1.9-4.6-6.4-7.8-11.8-7.8c-7,0-12.7,5.7-12.7,12.7c0,0.5,0,1.1,0.1,1.6c0,0-0.1,0-0.1,0
		c-4.7,0-8.5,3.8-8.5,8.5s3.8,8.5,8.5,8.5h37.8c3.3,0,6.1-2.7,6.1-6.1S49.8,37.2,46.4,37.2z"/>
</g>
</svg>
