<?xml version="1.0" encoding="utf-8"?>
<!-- Generator: Adobe Illustrator 23.0.1, SVG Export Plug-In . SVG Version: 6.00 Build 0)  -->
<svg version="1.1" id="Layer_1" xmlns="http://www.w3.org/2000/svg" xmlns:xlink="http://www.w3.org/1999/xlink" x="0px" y="0px"
	 viewBox="0 0 64 64" style="enable-background:new 0 0 64 64;" xml:space="preserve">
<style type="text/css">
	.st0{fill:#DDE5ED;}
	.st1{fill:#FFFFFF;}
	.st2{fill:#B9D7FF;}
</style>
<g>
	<g>
		<path class="st0" d="M58.9,23.1C58.9,23.1,58.9,23.1,58.9,23.1c0.3-0.9,0.6-2,0.6-3c0-4.2-3.4-7.6-7.6-7.6c-1.5,0-2.8,0.4-4,1.2
			c-1.6-3.8-5.4-6.5-9.8-6.5c-5.9,0-10.6,4.7-10.6,10.6c0,0.4,0,0.9,0.1,1.3c0,0-0.1,0-0.1,0c-3.9,0-7.1,3.2-7.1,7.1
			s3.2,7.1,7.1,7.1H59c2.8,0,5-2.2,5-5C64,25.4,61.7,23.1,58.9,23.1z"/>
		<path class="st1" d="M46.4,29.7C46.3,29.7,46.3,29.7,46.4,29.7c0.4-1.1,0.7-2.3,0.7-3.6c0-5.1-4.1-9.2-9.2-9.2
			c-1.8,0-3.4,0.5-4.9,1.4c-1.9-4.6-6.4-7.8-11.8-7.8c-7,0-12.7,5.7-12.7,12.7c0,0.5,0,1.1,0.1,1.6c0,0-0.1,0-0.1,0
			c-4.7,0-8.5,3.8-8.5,8.5s3.8,8.5,8.5,8.5h37.8c3.3,0,6.1-2.7,6.1-6.1C52.4,32.4,49.7,29.7,46.4,29.7z"/>
	</g>
	<path class="st2" d="M13.9,54.3c-1.1,2.3-3.8,3.2-6.1,2.1c-2.3-1.1-3.2-3.8-2.1-6.1c1.1-2.3,8.1-6.4,8.1-6.4S14.9,52,13.9,54.3z"/>
	<path class="st2" d="M25.2,54.3c-1.1,2.3-3.8,3.2-6.1,2.1c-2.3-1.1-3.2-3.8-2.1-6.1c1.1-2.3,8.1-6.4,8.1-6.4S26.3,52,25.2,54.3z"/>
	<path class="st2" d="M36.7,54.3c-1.1,2.3-3.8,3.2-6.1,2.1c-2.3-1.1-3.2-3.8-2.1-6.1c1.1-2.3,8.1-6.4,8.1-6.4S37.8,52,36.7,54.3z"/>
</g>
</svg>
