<?xml version="1.0" encoding="utf-8"?>
<!-- Generator: Adobe Illustrator 23.0.1, SVG Export Plug-In . SVG Version: 6.00 Build 0)  -->
<svg version="1.1" id="Layer_1" xmlns="http://www.w3.org/2000/svg" xmlns:xlink="http://www.w3.org/1999/xlink" x="0px" y="0px"
	 viewBox="0 0 64 64" style="enable-background:new 0 0 64 64;" xml:space="preserve">
<style type="text/css">
	.st0{fill:#B9D7FF;}
	.st1{fill:#EFAD0D;}
	.st2{fill:#FFDC7B;}
	.st3{fill:#FFFFFF;}
</style>
<g>
	<path class="st0" d="M29,61.3c-1.1,2.4-4,3.4-6.3,2.2c-2.4-1.1-3.4-4-2.2-6.3c1.1-2.4,8.5-6.7,8.5-6.7S30.2,58.9,29,61.3z"/>
	<path class="st0" d="M40.9,61.3c-1.1,2.4-4,3.4-6.3,2.2c-2.4-1.1-3.4-4-2.2-6.3c1.1-2.4,8.5-6.7,8.5-6.7S42,58.9,40.9,61.3z"/>
	<path class="st0" d="M52.9,61.3c-1.1,2.4-4,3.4-6.3,2.2c-2.4-1.1-3.4-4-2.2-6.3c1.1-2.4,8.5-6.7,8.5-6.7S54,58.9,52.9,61.3z"/>
	<g>
		<g>
			<ellipse class="st1" cx="20.3" cy="20.3" rx="8.2" ry="8.2"/>
			<g>
				<path class="st1" d="M20.3,9L20.3,9c-0.5,0-1-0.5-1-1V1c0-0.5,0.5-1,1-1l0,0c0.5,0,1,0.5,1,1v7C21.3,8.5,20.8,9,20.3,9z"/>
				<path class="st2" d="M20.3,40.5L20.3,40.5c-0.5,0-1-0.5-1-1v-7c0-0.5,0.5-1,1-1l0,0c0.5,0,1,0.5,1,1v7
					C21.3,40.1,20.8,40.5,20.3,40.5z"/>
			</g>
			<g>
				<path class="st1" d="M28.3,12.3L28.3,12.3c-0.4-0.4-0.4-1,0-1.4l4.9-4.9c0.4-0.4,1-0.4,1.4,0l0,0c0.4,0.4,0.4,1,0,1.4l-4.9,4.9
					C29.3,12.7,28.7,12.7,28.3,12.3z"/>
				<path class="st1" d="M6,34.6L6,34.6c-0.4-0.4-0.4-1,0-1.4l4.9-4.9c0.4-0.4,1-0.4,1.4,0l0,0c0.4,0.4,0.4,1,0,1.4l-4.9,4.9
					C7,35,6.4,35,6,34.6z"/>
			</g>
			<g>
				<path class="st2" d="M31.6,20.3L31.6,20.3c0-0.5,0.5-1,1-1h7c0.5,0,1,0.5,1,1l0,0c0,0.5-0.5,1-1,1h-7
					C32,21.3,31.6,20.8,31.6,20.3z"/>
				<path class="st1" d="M0,20.3L0,20.3c0-0.5,0.5-1,1-1h7c0.5,0,1,0.5,1,1l0,0c0,0.5-0.5,1-1,1H1C0.5,21.3,0,20.8,0,20.3z"/>
			</g>
			<g>
				<path class="st2" d="M28.3,28.2L28.3,28.2c0.4-0.4,1-0.4,1.4,0l4.9,4.9c0.4,0.4,0.4,1,0,1.4l0,0c-0.4,0.4-1,0.4-1.4,0l-4.9-4.9
					C27.9,29.3,27.9,28.7,28.3,28.2z"/>
				<path class="st1" d="M6,5.9L6,5.9c0.4-0.4,1-0.4,1.4,0l4.9,4.9c0.4,0.4,0.4,1,0,1.4l0,0c-0.4,0.4-1,0.4-1.4,0L6,7.3
					C5.6,7,5.6,6.3,6,5.9z"/>
			</g>
		</g>
		<path class="st3" d="M57.8,34.6C57.8,34.6,57.8,34.6,57.8,34.6c0.4-1.1,0.7-2.4,0.7-3.6c0-5.1-4.1-9.2-9.2-9.2
			c-1.8,0-3.5,0.5-4.9,1.4c-1.9-4.7-6.5-8-11.9-8c-7.1,0-12.8,5.7-12.8,12.8c0,0.5,0,1.1,0.1,1.6c0,0-0.1,0-0.1,0
			c-4.8,0-8.6,3.9-8.6,8.6s3.9,8.6,8.6,8.6h38.2c3.4,0,6.1-2.7,6.1-6.1C64,37.3,61.2,34.6,57.8,34.6z"/>
	</g>
</g>
</svg>
