<?xml version="1.0" encoding="utf-8"?>
<!-- Generator: Adobe Illustrator 23.0.1, SVG Export Plug-In . SVG Version: 6.00 Build 0)  -->
<svg version="1.1" id="Layer_1" xmlns="http://www.w3.org/2000/svg" xmlns:xlink="http://www.w3.org/1999/xlink" x="0px" y="0px"
	 viewBox="0 0 64 64" style="enable-background:new 0 0 64 64;" xml:space="preserve">
<style type="text/css">
	.st0{fill:#FFDC7B;}
	.st1{fill:#FFFFFF;}
	.st2{fill:#B9D7FF;}
</style>
<g>
	<g>
		<path class="st0" d="M47.3,20.1c1.5,0,3-0.4,4.2-1.1c-2.1,2.2-5,3.6-8.3,3.6c-6.3,0-11.3-5.1-11.3-11.3C31.8,5,36.9,0,43.2,0
			c3.3,0,6.2,1.4,8.3,3.6c-1.2-0.7-2.7-1.1-4.2-1.1c-4.9,0-8.8,3.9-8.8,8.8C38.5,16.2,42.4,20.1,47.3,20.1z"/>
		<path class="st1" d="M52.9,33.7C52.9,33.7,52.9,33.7,52.9,33.7c0.4-1.2,0.7-2.4,0.7-3.8c0-5.3-4.2-9.5-9.5-9.5
			c-1.9,0-3.6,0.5-5,1.4c-2-4.8-6.7-8.2-12.2-8.2c-7.3,0-13.2,5.9-13.2,13.2c0,0.5,0,1.1,0.1,1.6c0,0-0.1,0-0.1,0
			c-4.9,0-8.9,4-8.9,8.9s4,8.9,8.9,8.9H53c3.5,0,6.3-2.8,6.3-6.3C59.2,36.5,56.4,33.7,52.9,33.7z"/>
	</g>
	<path class="st2" d="M25.4,61.4c-1.1,2.3-3.8,3.2-6.1,2.1c-2.3-1.1-3.2-3.8-2.1-6.1c1.1-2.3,8.2-6.4,8.2-6.4S26.5,59.1,25.4,61.4z"
		/>
	<path class="st2" d="M36.8,61.4c-1.1,2.3-3.8,3.2-6.1,2.1c-2.3-1.1-3.2-3.8-2.1-6.1c1.1-2.3,8.2-6.4,8.2-6.4S37.8,59.1,36.8,61.4z"
		/>
	<path class="st2" d="M48.3,61.4c-1.1,2.3-3.8,3.2-6.1,2.1c-2.3-1.1-3.2-3.8-2.1-6.1c1.1-2.3,8.2-6.4,8.2-6.4S49.4,59.1,48.3,61.4z"
		/>
</g>
</svg>
