<?xml version="1.0" encoding="utf-8"?>
<!-- Generator: Adobe Illustrator 23.0.1, SVG Export Plug-In . SVG Version: 6.00 Build 0)  -->
<svg version="1.1" id="Layer_1" xmlns="http://www.w3.org/2000/svg" xmlns:xlink="http://www.w3.org/1999/xlink" x="0px" y="0px"
	 viewBox="0 0 64 64" style="enable-background:new 0 0 64 64;" xml:space="preserve">
<style type="text/css">
	.st0{fill:#DDE5ED;}
	.st1{fill:#FFFFFF;}
	.st2{fill:#FFDC7B;}
</style>
<g>
	<g>
		<path class="st0" d="M59,19.3C58.9,19.3,58.9,19.3,59,19.3c0.3-0.9,0.5-1.9,0.5-3c0-4.2-3.4-7.6-7.6-7.6c-1.5,0-2.9,0.4-4,1.2
			c-1.5-3.8-5.3-6.5-9.7-6.5c-5.8,0-10.6,4.7-10.6,10.6c0,0.4,0,0.9,0.1,1.3c0,0-0.1,0-0.1,0c-3.9,0-7.1,3.2-7.1,7.1
			s3.2,7.1,7.1,7.1H59c2.8,0,5-2.2,5-5C64,21.6,61.8,19.3,59,19.3z"/>
		<path class="st1" d="M46.4,25.9C46.3,25.9,46.3,25.9,46.4,25.9c0.4-1.1,0.7-2.3,0.7-3.6c0-5-4.1-9.1-9.1-9.1
			c-1.8,0-3.4,0.5-4.8,1.4c-1.9-4.6-6.5-7.9-11.8-7.9c-7,0-12.7,5.7-12.7,12.7c0,0.5,0,1,0.1,1.5c0,0-0.1,0-0.1,0
			c-4.7,0-8.5,3.8-8.5,8.5S3.8,38,8.5,38h37.8c3.3,0,6-2.7,6-6C52.5,28.6,49.7,25.9,46.4,25.9z"/>
	</g>
	<polygon class="st2" points="23.4,40.5 20.1,50.5 24.6,50.5 21.7,60.6 32.4,46.3 26.9,46.3 29,40.5 	"/>
</g>
</svg>
