<?xml version="1.0" encoding="utf-8"?>
<!-- Generator: Adobe Illustrator 23.0.1, SVG Export Plug-In . SVG Version: 6.00 Build 0)  -->
<svg version="1.1" id="Layer_1" xmlns="http://www.w3.org/2000/svg" xmlns:xlink="http://www.w3.org/1999/xlink" x="0px" y="0px"
	 viewBox="0 0 64 64" style="enable-background:new 0 0 64 64;" xml:space="preserve">
<style type="text/css">
	.st0{fill:#DDE5ED;}
	.st1{fill:#FFFFFF;}
</style>
<g>
	<g>
		<g>
			<path class="st0" d="M59,20C58.9,20,58.9,20,59,20c0.3-0.9,0.5-1.9,0.5-3c0-4.2-3.4-7.6-7.6-7.6c-1.5,0-2.9,0.4-4,1.2
				C46.3,6.8,42.5,4,38.2,4c-5.8,0-10.6,4.7-10.6,10.6c0,0.4,0,0.9,0.1,1.3c0,0-0.1,0-0.1,0c-3.9,0-7.1,3.2-7.1,7.1s3.2,7.1,7.1,7.1
				H59c2.8,0,5-2.2,5-5C64,22.3,61.8,20,59,20z"/>
			<path class="st1" d="M46.4,26.6C46.3,26.6,46.3,26.6,46.4,26.6c0.4-1.1,0.7-2.3,0.7-3.6c0-5-4.1-9.1-9.1-9.1
				c-1.8,0-3.4,0.5-4.8,1.4c-1.9-4.6-6.5-7.9-11.8-7.9c-7,0-12.7,5.7-12.7,12.7c0,0.5,0,1,0.1,1.5c0,0-0.1,0-0.1,0
				c-4.7,0-8.5,3.8-8.5,8.5s3.8,8.5,8.5,8.5h37.8c3.3,0,6-2.7,6-6C52.5,29.3,49.7,26.6,46.4,26.6z"/>
		</g>
	</g>
	<g>
		<path class="st1" d="M24.3,60L24.3,60c-0.4,0-0.8-0.3-0.8-0.8v-16c0-0.4,0.3-0.8,0.8-0.8l0,0c0.4,0,0.8,0.3,0.8,0.8v16
			C25.1,59.6,24.7,60,24.3,60z"/>
		<g>
			<path class="st1" d="M27.4,43.6c0.2,0.2,0.2,0.5,0,0.7l-3.1,3.1l0,0l0,0l-3.1-3.1c-0.2-0.2-0.2-0.5,0-0.7l0.3-0.3
				c0.2-0.2,0.5-0.2,0.7,0l1.6,1.6c0.2,0.2,0.5,0.2,0.7,0l1.6-1.6c0.2-0.2,0.5-0.2,0.7,0L27.4,43.6z"/>
			<path class="st1" d="M21.2,58.7c-0.2-0.2-0.2-0.5,0-0.7l3.1-3.1l0,0l0,0l3.1,3.1c0.2,0.2,0.2,0.5,0,0.7L27,59
				c-0.2,0.2-0.5,0.2-0.7,0l-1.6-1.6c-0.2-0.2-0.5-0.2-0.7,0L22.4,59c-0.2,0.2-0.5,0.2-0.7,0L21.2,58.7z"/>
		</g>
		<path class="st1" d="M15.5,51.2L15.5,51.2c0-0.4,0.3-0.8,0.8-0.8h16c0.4,0,0.8,0.3,0.8,0.8l0,0c0,0.4-0.3,0.8-0.8,0.8h-16
			C15.8,51.9,15.5,51.6,15.5,51.2z"/>
		<g>
			<path class="st1" d="M31.8,54.2c-0.2,0.2-0.5,0.2-0.7,0L28,51.2l0,0l0,0l3.1-3.1c0.2-0.2,0.5-0.2,0.7,0l0.3,0.3
				c0.2,0.2,0.2,0.5,0,0.7l-1.6,1.6c-0.2,0.2-0.2,0.5,0,0.7l1.6,1.6c0.2,0.2,0.2,0.5,0,0.7L31.8,54.2z"/>
			<path class="st1" d="M16.8,48.1c0.2-0.2,0.5-0.2,0.7,0l3.1,3.1l0,0l0,0l-3.1,3.1c-0.2,0.2-0.5,0.2-0.7,0l-0.3-0.3
				c-0.2-0.2-0.2-0.5,0-0.7l1.6-1.6c0.2-0.2,0.2-0.5,0-0.7l-1.6-1.6c-0.2-0.2-0.2-0.5,0-0.7L16.8,48.1z"/>
		</g>
		<path class="st1" d="M20.1,55.3L20.1,55.3c-0.2-0.2-0.2-0.5,0-0.7l7.7-7.7c0.2-0.2,0.5-0.2,0.7,0l0,0c0.2,0.2,0.2,0.5,0,0.7
			l-7.7,7.7C20.6,55.6,20.3,55.6,20.1,55.3z"/>
		<g>
			<path class="st1" d="M29.4,48.8c0,0.3-0.2,0.5-0.5,0.5h-2.8l0,0l0,0v-2.8c0-0.3,0.2-0.5,0.5-0.5l0,0c0.3,0,0.5,0.2,0.5,0.5v1.2
				c0,0.3,0.2,0.5,0.5,0.5h1.2C29.1,48.3,29.4,48.6,29.4,48.8L29.4,48.8z"/>
			<path class="st1" d="M19.3,53.4c0-0.3,0.2-0.5,0.5-0.5h2.8l0,0l0,0v2.8c0,0.3-0.2,0.5-0.5,0.5l0,0c-0.3,0-0.5-0.2-0.5-0.5v-1.2
				c0-0.3-0.2-0.5-0.5-0.5h-1.2C19.5,54,19.3,53.8,19.3,53.4L19.3,53.4z"/>
		</g>
		<path class="st1" d="M20.1,46.9L20.1,46.9c0.2-0.2,0.5-0.2,0.7,0l7.7,7.7c0.2,0.2,0.2,0.5,0,0.7l0,0c-0.2,0.2-0.5,0.2-0.7,0
			l-7.7-7.7C19.9,47.5,19.9,47.2,20.1,46.9z"/>
		<g>
			<path class="st1" d="M26.6,56.2c-0.3,0-0.5-0.2-0.5-0.5v-2.8l0,0l0,0h2.8c0.3,0,0.5,0.2,0.5,0.5l0,0c0,0.3-0.2,0.5-0.5,0.5h-1.2
				c-0.3,0-0.5,0.2-0.5,0.5v1.2C27.1,56,26.9,56.2,26.6,56.2L26.6,56.2z"/>
			<path class="st1" d="M22,46.1c0.3,0,0.5,0.2,0.5,0.5v2.8l0,0l0,0h-2.8c-0.3,0-0.5-0.2-0.5-0.5l0,0c0-0.3,0.2-0.5,0.5-0.5h1.2
				c0.3,0,0.5-0.2,0.5-0.5v-1.2C21.5,46.3,21.7,46.1,22,46.1L22,46.1z"/>
		</g>
	</g>
	<g>
		<path class="st1" d="M40.7,54L40.7,54c-0.3,0-0.5-0.2-0.5-0.5V42.9c0-0.3,0.2-0.5,0.5-0.5l0,0c0.3,0,0.5,0.2,0.5,0.5v10.6
			C41.2,53.8,40.9,54,40.7,54z"/>
		<g>
			<path class="st1" d="M42.7,43.2c0.1,0.1,0.1,0.3,0,0.5l-2,2l0,0l0,0l-2-2c-0.1-0.1-0.1-0.3,0-0.5l0.2-0.2c0.1-0.1,0.3-0.1,0.5,0
				l1,1c0.1,0.1,0.3,0.1,0.5,0l1-1c0.1-0.1,0.3-0.2,0.5,0L42.7,43.2z"/>
			<path class="st1" d="M38.7,53.1c-0.1-0.1-0.1-0.3,0-0.5l2-2l0,0l0,0l2,2c0.1,0.1,0.1,0.3,0,0.5l-0.2,0.2c-0.1,0.1-0.3,0.1-0.5,0
				l-1-1c-0.1-0.1-0.3-0.1-0.5,0l-1,1c-0.1,0.1-0.3,0.2-0.5,0L38.7,53.1z"/>
		</g>
		<path class="st1" d="M34.9,48.2L34.9,48.2c0-0.3,0.2-0.5,0.5-0.5h10.6c0.3,0,0.5,0.2,0.5,0.5l0,0c0,0.3-0.2,0.5-0.5,0.5H35.4
			C35.1,48.7,34.9,48.4,34.9,48.2z"/>
		<g>
			<path class="st1" d="M45.6,50.2c-0.1,0.1-0.3,0.1-0.5,0l-2-2l0,0l0,0l2-2c0.1-0.1,0.3-0.1,0.5,0l0.2,0.2c0.1,0.1,0.1,0.3,0,0.5
				l-1,1c-0.1,0.1-0.1,0.3,0,0.5l1,1c0.1,0.1,0.2,0.3,0,0.5L45.6,50.2z"/>
			<path class="st1" d="M35.7,46.1c0.1-0.1,0.3-0.1,0.5,0l2,2l0,0l0,0l-2,2c-0.1,0.1-0.3,0.1-0.5,0l-0.2-0.2c-0.1-0.1-0.1-0.3,0-0.5
				l1-1c0.1-0.1,0.1-0.3,0-0.5l-1-1c-0.1-0.1-0.2-0.3,0-0.5L35.7,46.1z"/>
		</g>
		<path class="st1" d="M37.9,50.9L37.9,50.9c-0.2-0.2-0.2-0.3,0-0.5l5.1-5.1c0.1-0.1,0.3-0.1,0.5,0l0,0c0.1,0.1,0.1,0.3,0,0.5
			l-5.1,5.1C38.3,51.1,38,51.1,37.9,50.9z"/>
		<g>
			<path class="st1" d="M44,46.6c0,0.2-0.2,0.3-0.3,0.3h-1.8l0,0l0,0v-1.8c0-0.2,0.2-0.3,0.3-0.3l0,0c0.2,0,0.3,0.2,0.3,0.3v0.8
				c0,0.2,0.2,0.3,0.3,0.3h0.8C43.9,46.3,44,46.4,44,46.6L44,46.6z"/>
			<path class="st1" d="M37.3,49.7c0-0.2,0.2-0.3,0.3-0.3h1.8l0,0l0,0v1.8c0,0.2-0.2,0.3-0.3,0.3l0,0c-0.2,0-0.3-0.2-0.3-0.3v-0.8
				c0-0.2-0.2-0.3-0.3-0.3h-0.8C37.5,50,37.3,49.9,37.3,49.7L37.3,49.7z"/>
		</g>
		<path class="st1" d="M37.9,45.4L37.9,45.4c0.2-0.2,0.3-0.2,0.5,0l5.1,5.1c0.1,0.1,0.1,0.3,0,0.5l0,0c-0.1,0.1-0.3,0.1-0.5,0
			l-5.1-5.1C37.8,45.7,37.8,45.5,37.9,45.4z"/>
		<g>
			<path class="st1" d="M42.2,51.5c-0.2,0-0.3-0.2-0.3-0.3v-1.8l0,0l0,0h1.8c0.2,0,0.3,0.2,0.3,0.3l0,0c0,0.2-0.2,0.3-0.3,0.3h-0.8
				c-0.2,0-0.3,0.2-0.3,0.3v0.8C42.5,51.4,42.4,51.5,42.2,51.5L42.2,51.5z"/>
			<path class="st1" d="M39.2,44.8c0.2,0,0.3,0.2,0.3,0.3V47l0,0l0,0h-1.8c-0.2,0-0.3-0.2-0.3-0.3l0,0c0-0.2,0.2-0.3,0.3-0.3h0.8
				c0.2,0,0.3-0.2,0.3-0.3v-0.8C38.8,45,39,44.8,39.2,44.8L39.2,44.8z"/>
		</g>
	</g>
</g>
</svg>
