<?xml version="1.0" encoding="utf-8"?>
<!-- Generator: Adobe Illustrator 23.0.1, SVG Export Plug-In . SVG Version: 6.00 Build 0)  -->
<svg version="1.1" id="Layer_1" xmlns="http://www.w3.org/2000/svg" xmlns:xlink="http://www.w3.org/1999/xlink" x="0px" y="0px"
	 viewBox="0 0 64 64" style="enable-background:new 0 0 64 64;" xml:space="preserve">
<style type="text/css">
	.st0{fill:#B9D7FF;}
</style>
<path class="st0" d="M53.7,37.1c-3.1,0-4.7-1-6.2-1.8c-1.3-0.8-2.4-1.5-4.7-1.5c-2.3,0-3.4,0.6-4.7,1.5c-1.4,0.9-3.1,1.8-6.2,1.8
	c-3.1,0-4.7-1-6.2-1.8c-1.3-0.8-2.4-1.5-4.7-1.5s-3.4,0.6-4.7,1.5c-1.4,0.9-3.1,1.8-6.2,1.8s-4.8-1-6.2-1.8
	c-1.2-0.7-2.1-1.3-3.9-1.4v-1.5c2.6,0.2,4.1,1,5.4,1.8c1.3,0.8,2.4,1.5,4.7,1.5s3.4-0.6,4.7-1.5c1.4-0.9,3.1-1.8,6.2-1.8
	s4.7,1,6.2,1.8c1.3,0.8,2.4,1.5,4.7,1.5s3.4-0.6,4.7-1.5c1.4-0.9,3.1-1.8,6.2-1.8c3.1,0,4.7,1,6.2,1.8c1.3,0.8,2.4,1.5,4.7,1.5
	s3.4-0.6,4.7-1.5c1.3-0.8,2.8-1.7,5.4-1.8v1.5C62,34,61,34.5,59.8,35.3C58.5,36.1,56.9,37.1,53.7,37.1z"/>
<path class="st0" d="M53.6,42.5c-3.1,0-4.7-1-6.2-1.8c-1.3-0.8-2.4-1.5-4.7-1.5c-2.3,0-3.4,0.6-4.7,1.5c-1.4,0.9-3.1,1.8-6.2,1.8
	c-3.1,0-4.7-1-6.2-1.8c-1.3-0.8-2.4-1.5-4.7-1.5s-3.4,0.6-4.7,1.5c-1.4,0.9-3.1,1.8-6.2,1.8s-4.7-1-6.2-1.8
	c-1.2-0.7-2.1-1.3-3.9-1.4v-1.5c2.6,0.2,4.1,1,5.4,1.8c1.3,0.8,2.4,1.5,4.7,1.5s3.4-0.6,4.7-1.5c1.4-0.9,3.1-1.8,6.2-1.8
	s4.7,1,6.2,1.8c1.3,0.8,2.4,1.5,4.7,1.5s3.4-0.6,4.7-1.5c1.4-0.9,3.1-1.8,6.2-1.8c3.1,0,4.7,1,6.2,1.8c1.3,0.8,2.4,1.5,4.7,1.5
	c2.3,0,3.4-0.6,4.7-1.5c1.3-0.8,2.8-1.7,5.4-1.8v1.5c-1.8,0.1-2.7,0.7-3.9,1.4C58.4,41.5,56.7,42.5,53.6,42.5z"/>
<path class="st0" d="M53.9,31.6c-3.1,0-4.7-1-6.2-1.8c-1.3-0.8-2.4-1.5-4.7-1.5c-2.3,0-3.4,0.6-4.7,1.5c-1.4,0.9-3.1,1.8-6.2,1.8
	c-3.1,0-4.7-1-6.2-1.8c-1.3-0.8-2.4-1.5-4.7-1.5S18,29,16.6,29.8c-1.4,0.9-3.1,1.8-6.2,1.8s-4.8-1-6.2-1.8c-1.2-0.7-2.1-1.3-3.9-1.4
	v-1.5c2.6,0.2,4.1,1,5.4,1.8c1.3,0.8,2.4,1.5,4.7,1.5s3.4-0.6,4.7-1.5c1.4-0.9,3.1-1.8,6.2-1.8s4.7,1,6.2,1.8
	c1.3,0.8,2.4,1.5,4.7,1.5c2.3,0,3.4-0.6,4.7-1.5c1.4-0.9,3.1-1.8,6.2-1.8c3.1,0,4.7,1,6.2,1.8c1.3,0.8,2.4,1.5,4.7,1.5
	c2.3,0,3.4-0.6,4.7-1.5c1.3-0.8,2.8-1.7,5.4-1.8v1.5c-1.8,0.1-2.7,0.7-3.9,1.4C58.6,30.7,57,31.6,53.9,31.6z"/>
<path class="st0" d="M54,26.2c-3.1,0-4.7-1-6.2-1.8c-1.3-0.8-2.4-1.4-4.7-1.4c-2.3,0-3.4,0.6-4.7,1.5c-1.4,0.8-3.1,1.8-6.2,1.8
	c-3.1,0-4.7-1-6.2-1.8c-1.3-0.8-2.4-1.5-4.7-1.5s-3.4,0.6-4.7,1.5c-1.4,0.9-3.1,1.8-6.2,1.8s-4.8-1-6.2-1.8
	c-1.2-0.7-2.1-1.3-3.9-1.4v-1.5c2.6,0.2,4.1,1,5.4,1.8c1.3,0.8,2.4,1.5,4.7,1.5s3.4-0.6,4.7-1.5c1.5-0.9,3.1-1.8,6.2-1.8
	s4.7,1,6.2,1.8c1.3,0.8,2.4,1.4,4.7,1.4s3.4-0.6,4.7-1.5c1.5-0.8,3.1-1.8,6.2-1.8c3.1,0,4.7,1,6.2,1.8c1.3,0.8,2.4,1.5,4.7,1.5
	c2.3,0,3.4-0.6,4.7-1.5c1.3-0.8,2.8-1.7,5.4-1.8V23c-1.8,0.1-2.7,0.7-3.9,1.4C58.8,25.2,57.2,26.2,54,26.2z"/>
</svg>
